<svg width="396" height="396" viewBox="0 0 396 396" fill="none" xmlns="http://www.w3.org/2000/svg">
<path fill-rule="evenodd" clip-rule="evenodd" d="M346.5 24.75H49.5C35.8311 24.75 24.75 35.8311 24.75 49.5V346.5C24.75 360.169 35.8311 371.25 49.5 371.25H346.5C360.169 371.25 371.25 360.169 371.25 346.5V49.5C371.25 35.8311 360.169 24.75 346.5 24.75ZM49.5 0C22.1619 0 0 22.1619 0 49.5V346.5C0 373.839 22.1619 396 49.5 396H346.5C373.839 396 396 373.839 396 346.5V49.5C396 22.1619 373.839 0 346.5 0H49.5Z" fill="white"/>
<path fill-rule="evenodd" clip-rule="evenodd" d="M86.625 198C86.625 191.166 92.1655 185.625 99 185.625H297C303.833 185.625 309.375 191.166 309.375 198C309.375 204.834 303.833 210.375 297 210.375H99C92.1655 210.375 86.625 204.834 86.625 198Z" fill="white"/>
</svg>
