<svg width="32" height="32" viewBox="0 0 16 16" fill="none" xmlns="http://www.w3.org/2000/svg">
<path d="M13.9997 0.999146C14.2649 0.999146 14.5192 1.1045 14.7068 1.29204C14.8943 1.47958 14.9997 1.73393 14.9997 1.99915V13.9991C14.9997 14.2644 14.8943 14.5187 14.7068 14.7063C14.5192 14.8938 14.2649 14.9991 13.9997 14.9991H1.99966C1.73445 14.9991 1.48009 14.8938 1.29256 14.7063C1.10502 14.5187 0.999664 14.2644 0.999664 13.9991V1.99915C0.999664 1.73393 1.10502 1.47958 1.29256 1.29204C1.48009 1.1045 1.73445 0.999146 1.99966 0.999146H13.9997ZM1.99966 -0.000854492C1.46923 -0.000854492 0.960523 0.209859 0.585451 0.584932C0.210378 0.960005 -0.000335693 1.46871 -0.000335693 1.99915V13.9991C-0.000335693 14.5296 0.210378 15.0383 0.585451 15.4134C0.960523 15.7884 1.46923 15.9991 1.99966 15.9991H13.9997C14.5301 15.9991 15.0388 15.7884 15.4139 15.4134C15.7889 15.0383 15.9997 14.5296 15.9997 13.9991V1.99915C15.9997 1.46871 15.7889 0.960005 15.4139 0.584932C15.0388 0.209859 14.5301 -0.000854492 13.9997 -0.000854492H1.99966Z" fill="white"/>
<path d="M7.99966 3.99915C8.13227 3.99915 8.25945 4.05182 8.35322 4.14559C8.44699 4.23936 8.49966 4.36654 8.49966 4.49915V7.49915H11.4997C11.6323 7.49915 11.7594 7.55182 11.8532 7.64559C11.947 7.73936 11.9997 7.86654 11.9997 7.99915C11.9997 8.13175 11.947 8.25893 11.8532 8.3527C11.7594 8.44647 11.6323 8.49915 11.4997 8.49915H8.49966V11.4991C8.49966 11.6318 8.44699 11.7589 8.35322 11.8527C8.25945 11.9465 8.13227 11.9991 7.99966 11.9991C7.86706 11.9991 7.73988 11.9465 7.64611 11.8527C7.55234 11.7589 7.49966 11.6318 7.49966 11.4991V8.49915H4.49966C4.36706 8.49915 4.23988 8.44647 4.14611 8.3527C4.05234 8.25893 3.99966 8.13175 3.99966 7.99915C3.99966 7.86654 4.05234 7.73936 4.14611 7.64559C4.23988 7.55182 4.36706 7.49915 4.49966 7.49915H7.49966V4.49915C7.49966 4.36654 7.55234 4.23936 7.64611 4.14559C7.73988 4.05182 7.86706 3.99915 7.99966 3.99915Z" fill="white"/>
</svg>
